<svg xmlns="http://www.w3.org/2000/svg" enable-background="new 0 0 24 24" viewBox="0 0 24 24" id="cplusplus"><path fill="#659AD2" d="M22.24,6l-0.01-0.02c-0.17-0.28-0.4-0.52-0.641-0.67l-8.68-5.09c-0.5-0.29-1.32-0.29-1.82,0L2.41,5.31C1.91,5.6,1.5,6.32,1.5,6.91v10.18c0,0.29,0.1,0.62,0.269,0.91l0.03,0.04c0.151,0.27,0.37,0.51,0.61,0.65l8.68,5.09c0.5,0.29,1.32,0.29,1.82,0l8.68-5.09c0.24-0.14,0.46-0.38,0.61-0.65L22.23,18c0.17-0.29,0.27-0.62,0.27-0.91V6.91C22.5,6.62,22.401,6.29,22.24,6L22.24,6z M19.59,12.39V11.6h0.771v-0.79h0.779v0.79h0.781v0.79H21.14v0.8H20.36v-0.8H19.59L19.59,12.39z M16.67,12.39V11.6h0.78v-0.79h0.769v0.79H19v0.79h-0.78v0.8H17.45v-0.8H16.67L16.67,12.39z M12,19.11c-2.57,0-4.83-1.42-6.04-3.53C5.349,14.53,5,13.31,5,12c0-3.92,3.139-7.11,7-7.11c2.58,0.01,4.83,1.42,6.04,3.52l0.021,0.03l-3.03,1.78C14.42,9.15,13.29,8.45,12,8.44c-1.93,0-3.5,1.6-3.5,3.56c0,0.65,0.17,1.26,0.481,1.79C9.58,14.85,10.71,15.56,12,15.56c1.29-0.01,2.42-0.71,3.02-1.77l0.011-0.01l3.03,1.78l-0.011,0.02C16.821,17.7,14.57,19.1,12,19.11L12,19.11z"></path><path fill="#004482" d="M8.981 13.79L12 12l3.02 1.79c-.6 1.06-1.729 1.76-3.02 1.77C10.71 15.56 9.58 14.85 8.981 13.79L8.981 13.79zM22.2 18.04c-.15.27-.37.51-.61.65l-8.68 5.09c-.5.29-1.32.29-1.82 0l-8.68-5.09c-.24-.14-.46-.38-.61-.65l4.16-2.46c1.21 2.11 3.47 3.53 6.04 3.53 2.57-.01 4.82-1.41 6.05-3.53L22.2 18.04 22.2 18.04z"></path><path fill="#5886B7" d="M12,8.44c-1.93,0-3.5,1.6-3.5,3.56c0,0.65,0.17,1.26,0.481,1.79C9.58,14.85,10.71,15.56,12,15.56l0,0l0,0c-1.29,0-2.42-0.71-3.019-1.77L12,12V8.44L12,8.44L12,8.44z M12,0.002c-0.33,0-0.66,0.072-0.91,0.217L2.41,5.31C1.91,5.6,1.5,6.32,1.5,6.91v10.18c0,0.29,0.1,0.62,0.269,0.91l0.03,0.04c0.151,0.27,0.37,0.51,0.61,0.65l8.68,5.09c0.25,0.145,0.58,0.218,0.91,0.218h0h0c-0.33,0-0.66-0.073-0.91-0.218l-8.68-5.09c-0.24-0.14-0.46-0.38-0.61-0.65l4.16-2.46C5.349,14.53,5,13.31,5,12c0-3.92,3.139-7.11,7-7.11l0,0L12,0.002L12,0.002L12,0.002z"></path><path fill="#003B71" d="M12 12l-3.019 1.79C9.58 14.85 10.71 15.56 12 15.56l0 0V12L12 12zM5.96 15.58L5.96 15.58 1.8 18.04c.151.27.37.51.61.65l8.68 5.09c.25.145.58.218.91.218h0V19.11l0 0C9.43 19.11 7.17 17.69 5.96 15.58L5.96 15.58z"></path><path fill="#00599C" d="M22.24,6l-0.01-0.02l-4.17,2.46l-3.03,1.78L12,12l3.02,1.79l3.03,1.79l4.151,2.46l0.03-0.04c0.17-0.29,0.27-0.62,0.27-0.91V6.91C22.5,6.62,22.401,6.29,22.24,6L22.24,6z M19,12.39h-0.78v0.8H17.45v-0.8h-0.78V11.6h0.78v-0.79h0.769v0.79H19V12.39L19,12.39z M21.92,12.39h-0.78v0.8H20.36v-0.8H19.59V11.6h0.771v-0.79h0.779v0.79h0.78V12.39L21.92,12.39z"></path><polygon fill="#DEDEDE" points="19 12 16.67 12 16.67 12.39 17.45 12.39 17.45 13.19 18.219 13.19 18.219 12.39 19 12.39 19 12"></polygon><polygon fill="#DEDEDE" points="21.92 12 19.59 12 19.59 12.39 20.36 12.39 20.36 13.19 21.14 13.19 21.14 12.39 21.92 12.39 21.92 12"></polygon><path fill="#004D88" d="M22.5,12h-0.58v0.39h-0.78v0.8H20.36v-0.8H19.59V12H19v0.39h-0.78v0.8H17.45v-0.8h-0.78V12H12l3.02,1.79l3.03,1.79l4.151,2.46l0.03-0.04c0.17-0.29,0.27-0.62,0.27-0.91V12L22.5,12z"></path></svg>